<svg xmlns="http://www.w3.org/2000/svg" width="19.53" height="19.53" viewBox="0 0 19.53 19.53">
    <path id="plus-solid_1_" fill="#e1bc5c" d="M18.135 39.672h-6.278v-6.277A1.4 1.4 0 0 0 10.462 32H9.067a1.4 1.4 0 0 0-1.395 1.395v6.277H1.395A1.4 1.4 0 0 0 0 41.067v1.395a1.4 1.4 0 0 0 1.395 1.395h6.277v6.277a1.4 1.4 0 0 0 1.395 1.396h1.395a1.4 1.4 0 0 0 1.395-1.395v-6.278h6.277a1.4 1.4 0 0 0 1.395-1.395v-1.395a1.4 1.4 0 0 0-1.394-1.395z" data-name="plus-solid (1)" transform="translate(0 -32)"/>
</svg>
